<svg width="72" height="42" viewBox="0 0 72 42" fill="none" xmlns="http://www.w3.org/2000/svg">
<g clip-path="url(#clip0_1_6320)">
<path d="M0 41.479V3.12801H3.1567V41.479H0Z" fill="#00C26B"/>
<path d="M13.0502 11.8399C14.1811 11.8399 14.9738 12.1875 15.4294 12.8814C15.8845 13.5759 16.1129 14.8387 16.1129 16.6691V41.479H13.1447V17.3796C13.1447 16.2749 13.0578 15.5332 12.8857 15.1544C12.7125 14.7756 12.3913 14.5861 11.9198 14.5861C11.197 14.5861 10.6315 14.9732 10.224 15.7462C9.81536 16.5198 9.53292 17.6876 9.37555 19.2495C9.21819 20.8121 9.14009 22.777 9.14009 25.1444V41.479H6.17188V12.3132H8.90463L9.04614 18.0422H9.09312C9.2499 16.5269 9.47714 15.3196 9.7766 14.4203C10.0749 13.5205 10.4906 12.8661 11.025 12.4554C11.5587 12.0459 12.234 11.8399 13.0513 11.8399H13.0502Z" fill="#00C26B"/>
<path d="M25.5355 14.87H22.5673V36.697C22.5673 37.7385 22.6689 38.433 22.8732 38.7799C23.0769 39.1275 23.4304 39.301 23.9331 39.301C24.1527 39.301 24.404 39.2697 24.687 39.206C24.9694 39.1428 25.2525 39.0803 25.5349 39.0166V41.384C25.1579 41.5096 24.7492 41.6282 24.31 41.7392C23.8702 41.8495 23.3987 41.905 22.8967 41.905C22.2056 41.905 21.6248 41.7864 21.1533 41.5498C20.6824 41.3131 20.3125 40.8712 20.0459 40.2239C19.7787 39.5771 19.6454 38.6696 19.6454 37.5012V14.87H17.6666V12.3132H19.787L20.1639 6.20526H22.5667V12.3132H25.5349V14.87H25.5355Z" fill="#00C26B"/>
<path d="M31.5659 11.7921C33.3245 11.7921 34.5259 12.345 35.17 13.4491C35.8135 14.5543 36.1359 16.4166 36.1359 19.0359V27.6528H29.634V35.3705C29.634 36.7908 29.7356 37.8405 29.9405 38.5191C30.1443 39.1983 30.624 39.537 31.3774 39.537C32.2253 39.537 32.7437 39.1511 32.9322 38.3769C33.1207 37.6039 33.2305 36.5542 33.2622 35.2283V31.0145L36.1365 31.63L36.042 35.0861C35.9785 37.4222 35.6098 39.1582 34.9345 40.2941C34.2587 41.4306 33.042 41.9988 31.2834 41.9988C30.1525 41.9988 29.2494 41.7693 28.5741 41.312C27.8983 40.8547 27.4121 40.1047 27.1138 39.0632C26.8149 38.0217 26.6664 36.6486 26.6664 34.9438V18.9403C26.6664 17.2356 26.8314 15.8625 27.1608 14.821C27.4908 13.7795 28.0163 13.0142 28.7391 12.525C29.4614 12.0358 30.4032 11.7909 31.5659 11.7909V11.7921ZM31.5189 14.2545C30.671 14.2545 30.1443 14.5785 29.9405 15.2252C29.7356 15.8725 29.634 16.9223 29.634 18.3739V25.3338H33.2147V18.4211C33.2147 16.9695 33.136 15.9115 32.9792 15.2488C32.8213 14.5861 32.3351 14.2545 31.5183 14.2545H31.5189Z" fill="#00C26B"/>
<path d="M44.5221 11.9815C44.6788 11.9815 44.8286 11.9981 44.9695 12.0287C45.111 12.0606 45.2126 12.0925 45.276 12.1237V15.3432C45.2126 15.3119 45.1263 15.2883 45.0165 15.2724C44.9061 15.2571 44.788 15.2488 44.663 15.2488C43.9719 15.2488 43.4217 15.604 43.0142 16.3139C42.6055 17.0243 42.3072 17.9874 42.1193 19.2017C41.9308 20.4173 41.8052 21.8058 41.7423 23.3683C41.6789 24.9308 41.6478 26.596 41.6478 28.3633V41.4784H38.6796V12.3132H41.4123L41.5538 19.747H41.6008C41.7259 18.0115 41.8909 16.567 42.0958 15.4146C42.2996 14.2628 42.5902 13.4024 42.9672 12.8342C43.3442 12.266 43.8626 11.9821 44.5221 11.9821V11.9815Z" fill="#00C26B"/>
<path d="M45.8409 12.3132H48.8561L51.1179 38.7327H51.2119L53.2852 12.3132H56.3004L53.0962 41.479H49.1855L45.8403 12.3132H45.8409Z" fill="#00C26B"/>
<path d="M64.7782 32.9069C64.7406 33.3046 64.6965 35.148 64.6419 35.495C64.4805 36.5577 64.2526 37.3933 63.9573 37.9993C63.5639 38.803 63.0213 39.2072 62.3302 39.2072C61.8593 39.2072 61.5451 39.0006 61.3878 38.5905C61.231 38.1804 61.1535 37.4228 61.1535 36.3181V14.3129L58.1841 13.2461V36.9808C58.1841 38.7799 58.4125 40.0592 58.8687 40.8169C59.3232 41.5746 60.1001 41.9534 61.1993 41.9534C62.393 41.9534 63.2808 41.463 63.8627 40.4847C64.4429 39.5063 64.8428 37.85 65.0624 35.5145H65.1105L65.2508 41.4801H67.9836V32.9069H64.7776H64.7782Z" fill="#00C26B"/>
<path d="M61.1535 12.3138V14.3129L58.1841 13.2461V12.3138H61.1535Z" fill="#00C26B"/>
<path d="M65.2028 30.7254H67.9849V26.3688C67.9849 24.5083 67.9467 21.4375 69.2949 19.2454C70.6431 17.0527 72.0001 15.3078 72.0001 10.1128V5.98103C72.0001 5.98103 72.0676 0 67.7641 0C63.4606 0 63.3649 5.73202 63.3649 5.73202L63.0848 15.0116L65.9157 16.0242C65.9157 16.0242 66.0959 9.49023 66.0959 7.45269C66.0959 5.41515 66.3889 2.67659 67.7629 2.63116C69.137 2.58572 68.979 5.7096 68.979 7.58841C68.979 9.46722 68.9338 8.99161 68.9338 10.1464C68.9338 11.3012 68.821 14.0622 67.6948 15.9185C66.5686 17.7749 65.2022 20.0579 65.2022 23.9796V30.7254H65.2028Z" fill="#00C26B"/>
</g>
<defs>
<clipPath id="clip0_1_6320">
<rect width="72" height="42" fill="white"/>
</clipPath>
</defs>
</svg>
